<?xml version="1.0" encoding="UTF-8"?>
<svg width="101px" height="84px" viewBox="0 0 101 84" version="1.1" xmlns="http://www.w3.org/2000/svg" xmlns:xlink="http://www.w3.org/1999/xlink">
    <!-- Generator: Sketch 48.2 (47327) - http://www.bohemiancoding.com/sketch -->
    <title>Group 5</title>
    <desc>Created with Sketch.</desc>
    <defs></defs>
    <g id="Home-V4" stroke="none" stroke-width="1" fill="none" fill-rule="evenodd" transform="translate(-1040.000000, -2174.000000)">
        <g id="Group-5" transform="translate(1040.000000, 2174.000000)">
            <circle id="Oval-3" fill="#E1D9D3" opacity="0.29908288" cx="36" cy="48" r="36"></circle>
            <path d="M34.0079057,4.41618205 C34.7821602,4.41618205 35.5222382,4.72669853 36.0687708,5.27873601 C36.6153034,5.83077348 36.9227462,6.58114169 36.9227462,7.36030341 L36.9227462,39.3776233 C36.9227462,40.5966367 37.9019869,41.5857143 39.1088766,41.5857143 C40.3157663,41.5857143 41.2950069,40.5966367 41.2950069,39.3776233 L41.2950069,31.2812895 L63.1563107,31.2812895 L63.1563107,39.3776233 C63.1563107,40.5966367 64.1355513,41.5857143 65.3424411,41.5857143 C66.5493308,41.5857143 67.5285714,40.5966367 67.5285714,39.3776233 L67.5285714,7.36030341 C67.5285714,5.40813014 66.7628428,3.53640498 65.3965113,2.15634809 C64.0273379,0.776291201 62.174228,0 60.2414702,0 L58.4196949,0 C57.2128052,0 56.2335645,0.989077573 56.2335645,2.20809102 C56.2335645,3.42710448 57.2128052,4.41618205 58.4196949,4.41618205 L60.2414702,4.41618205 C61.0157247,4.41618205 61.7558027,4.72669853 62.3023353,5.27873601 C62.8488679,5.83077348 63.1563107,6.58114169 63.1563107,7.36030341 L63.1563107,12.1445006 L41.2950069,12.1445006 L41.2950069,7.36030341 C41.2950069,5.40813014 40.5292783,3.53640498 39.1629469,2.15634809 C37.7937734,0.776291201 35.9406636,0 34.0079057,0 L32.1861304,0 C30.9792407,0 30,0.989077573 30,2.20809102 C30,3.42710448 30.9792407,4.41618205 32.1861304,4.41618205 L34.0079057,4.41618205 Z M63.1563107,16.5606827 L63.1563107,26.8651075 L41.2950069,26.8651075 L41.2950069,16.5606827 L63.1563107,16.5606827 Z" id="Fill-1" fill="#799D62"></path>
            <path d="M98.7952642,51.4387828 C96.5467804,51.4387828 95.495758,50.4681113 94.0542319,49.126646 C92.3772421,47.5758032 90.2895324,45.6428644 86.2919421,45.6428644 C82.2889118,45.6428644 80.2098767,47.5701521 78.5186252,49.1294715 C77.0483553,50.4709368 76.0260767,51.4416083 73.777593,51.4416083 C71.5291092,51.4416083 70.4838209,50.4709368 69.0365607,49.1294715 C67.3595709,47.5786287 65.2718612,45.6456899 61.2742709,45.6456899 C57.2741076,45.6428571 55.2151417,47.5700797 53.5097757,49.1294715 C52.0395058,50.4709368 51.0172271,51.4416083 48.7687434,51.4416083 C46.5202597,51.4416083 45.4749713,50.4709368 44.0277111,49.1379481 C42.3507213,47.5814542 40.2630116,45.6456899 36.2654213,45.6456899 L36.2625469,45.6428571 C35.0450172,45.6428571 34.0571429,46.6164265 34.0571429,47.8163265 C34.0571429,49.0162265 35.0450172,49.9897959 36.2625469,49.9897959 C38.5110307,49.9897959 39.556319,50.9604673 41.0035792,52.2934561 C42.7179139,53.8811031 44.7682787,55.7857143 48.7680744,55.7857143 C52.7682377,55.7857143 54.8558739,53.8811031 56.5303643,52.2934561 C58.0006341,50.9519908 59.0229128,49.9813194 61.2713965,49.9813194 C63.5198802,49.9813194 64.5651686,50.9519908 66.0124288,52.2934561 C67.7124283,53.8811031 69.7771283,55.7857143 73.776924,55.7857143 C77.7767197,55.7857143 79.8647235,53.8811031 81.5392138,52.2934561 C83.0094837,50.9519908 84.0317623,49.9813194 86.2802461,49.9813194 C88.5287298,49.9813194 89.5740182,50.9519908 91.0212783,52.2934561 C92.7069427,53.8811031 94.7859779,55.7857143 98.7945952,55.7857143 C100.012126,55.7857143 101,54.8121449 101,53.6122449 C101,52.4123449 100.012126,51.4387755 98.7945952,51.4387755 L98.7952642,51.4387828 Z" id="Fill-2" fill="#799D62"></path>
            <path d="M98.7952642,61.5816391 C96.5467804,61.5816391 95.495758,60.6109678 94.0542319,59.2695027 C92.3772421,57.71866 90.2895324,55.7857215 86.2919421,55.7857215 C82.2889118,55.7857215 80.2098767,57.713009 78.5186252,59.2723282 C77.0483553,60.6137933 76.0260767,61.5844646 73.777593,61.5844646 C71.5291092,61.5844646 70.4838209,60.6137933 69.0365607,59.2723282 C67.3595709,57.7214855 65.2718612,55.788547 61.2742709,55.788547 C57.2741076,55.7857143 55.2151417,57.7129366 53.5097757,59.2723282 C52.0395058,60.6137933 51.0172271,61.5844646 48.7687434,61.5844646 C46.5202597,61.5844646 45.4749713,60.6137933 44.0277111,59.2808047 C42.3507213,57.724311 40.2630116,55.788547 36.2654213,55.788547 L36.2625469,55.7857143 C35.0450172,55.7857143 34.0571429,56.7592835 34.0571429,57.9591834 C34.0571429,59.1590832 35.0450172,60.1326524 36.2625469,60.1326524 C38.5110307,60.1326524 39.556319,61.1033237 41.0035792,62.4363123 C42.7179139,64.0239605 44.7682787,65.9285714 48.7680744,65.9285714 C52.7682377,65.9285714 54.8558739,64.0239605 56.5303643,62.4363123 C58.0006341,61.0948472 59.0229128,60.1241759 61.2713965,60.1241759 C63.5198802,60.1241759 64.5651686,61.0948472 66.0124288,62.4363123 C67.7124283,64.0239605 69.7771283,65.9285714 73.776924,65.9285714 C77.7767197,65.9285714 79.8647235,64.0239605 81.5392138,62.4363123 C83.0094837,61.0948472 84.0317623,60.1241759 86.2802461,60.1241759 C88.5287298,60.1241759 89.5740182,61.0948472 91.0212783,62.4363123 C92.7069427,64.0239605 94.7859779,65.9285714 98.7945952,65.9285714 C100.012126,65.9285714 101,64.9550022 101,63.7551024 C101,62.5552011 100.012126,61.5816318 98.7945952,61.5816318 L98.7952642,61.5816391 Z" id="Fill-3" fill="#799D62"></path>
        </g>
    </g>
</svg>