<?xml version="1.0" encoding="UTF-8"?>
<svg width="108px" height="72px" viewBox="0 0 108 72" version="1.1" xmlns="http://www.w3.org/2000/svg" xmlns:xlink="http://www.w3.org/1999/xlink">
    <!-- Generator: Sketch 48.2 (47327) - http://www.bohemiancoding.com/sketch -->
    <title>Group 6</title>
    <desc>Created with Sketch.</desc>
    <defs></defs>
    <g id="Home-V4" stroke="none" stroke-width="1" fill="none" fill-rule="evenodd" transform="translate(-1406.000000, -2174.000000)">
        <g id="Group-6" transform="translate(1406.000000, 2174.000000)">
            <circle id="Oval-3-Copy-2" fill="#E1D9D3" opacity="0.29908288" cx="72" cy="36" r="36"></circle>
            <path d="M67.5590435,45.5939401 C71.7371453,45.5939401 75,40.6690657 75,34.3860743 C75,28.1030829 71.7372209,23.1782085 67.5590435,23.1782085 C65.0196634,23.1782085 62.8346507,24.9989136 61.4911845,27.8345006 C59.4537995,25.6854603 56.4272401,24.1483139 52.9577972,23.6110729 C50.7284885,19.2085395 41.4862155,2.31475245 30.9595123,0.19513016 C29.0550151,-0.192889089 27.1061464,0.00111671513 25.3345369,0.747316983 C21.5697627,2.32923985 20.0786687,5.67219138 21.3483587,9.65676037 C21.8946195,11.402889 22.9133044,13.0295883 24.3601781,14.5070583 C27.1948138,17.3873453 33.5731221,23.2079015 41.0724343,26.0580065 C39.9503721,26.819122 38.9611976,27.6996058 38.1935027,28.6995112 C34.9159835,24.625313 28.168719,21.8942553 20.1818495,21.8942553 C9.49262721,21.9091782 0,28.878617 0,34.3705248 C0,39.8624402 9.49338311,46.8468019 20.1674873,46.8468019 C25.9253505,46.8468019 31.0487089,45.4141084 34.6800662,43.0859624 L27.4015532,52.3537702 L9.71493823,55.5922688 C8.57813593,55.8012052 7.8251811,56.8906329 8.03184494,58.0397678 C8.23853902,59.1889026 9.31627507,59.9500258 10.4530774,59.74112 L28.9076896,56.353392 C29.4096545,56.2638467 29.8525682,55.9952186 30.1626396,55.5922764 L40.5714219,42.3549525 C41.2357924,42.8474399 41.9591839,43.280205 42.7416945,43.6682931 L42.7712201,43.7727613 C42.8893299,44.2652487 45.6797075,55.846356 52.7665235,59.5476719 C53.7852538,60.0849282 55.0401281,59.6670631 55.5716034,58.6373194 C56.1030939,57.6075375 55.6897133,56.3390498 54.6710208,55.8018088 C51.157282,53.9662037 48.7212338,48.6980177 47.5253955,45.1761896 C48.3964224,45.3105037 49.2970806,45.4000489 50.2271435,45.4000489 C52.5597841,45.4000489 54.7596126,44.9523303 56.6936656,44.1613612 C57.7566162,46.1014957 61.0636912,51.0113936 68.681529,54.6524982 C69.7149994,55.1449857 70.9698737,54.6972747 71.4571287,53.6525928 C71.9443837,52.6079185 71.5014246,51.3394232 70.4679542,50.8468822 C63.7061764,47.6083836 60.9896883,43.3103031 60.2957695,42.042121 C60.7239204,41.6988705 61.1373161,41.3257742 61.5064235,40.9377626 C62.8351495,43.7732732 65.034978,45.5940547 67.5595424,45.5940547 L67.5590435,45.5939401 Z M68.4782609,27.173913 C69.8002371,27.173913 71.7391304,29.930676 71.7391304,34.2391304 C71.7391304,38.5475849 69.8149023,41.3043478 68.4782609,41.3043478 C67.1562847,41.3043478 65.2173913,38.5475849 65.2173913,34.2391304 C65.2173913,29.930676 67.1562847,27.173913 68.4782609,27.173913 Z M20.6521743,42.3913043 C11.107132,42.3913043 4.34782609,36.205365 4.34782609,34.2319665 C4.34782609,32.1994468 10.9419457,26.0869565 20.6521743,26.0869565 C30.271986,26.0869565 36.9565217,30.3876515 36.9565217,34.2319665 C36.9565217,38.0762815 30.2570321,42.3913043 20.6521743,42.3913043 Z M25.2472388,8.51768964 C24.6499881,6.55137452 25.1161357,5.45384367 26.8495933,4.69174535 C27.5051162,4.40213238 29.6610228,4.29543081 30.0252146,4.37164064 C36.9009293,5.78922937 44.1841688,17.0842055 47.826087,23.9130435 C38.838015,23.2575999 29.8066846,14.4471033 27.2283289,11.749127 C26.2523277,10.727845 25.5968122,9.64561077 25.2472388,8.51764282 L25.2472388,8.51768964 Z M50,40.2173913 C44.6999282,40.2173913 40.2173913,37.2282686 40.2173913,33.6956558 C40.2173913,30.1630357 44.6998535,27.173913 50,27.173913 C55.3000718,27.173913 59.7826087,30.1630357 59.7826087,33.6956558 C59.7826087,37.2282686 55.3001465,40.2173913 50,40.2173913 Z" id="Page-1" fill="#799D62"></path>
        </g>
    </g>
</svg>