<?xml version="1.0" encoding="UTF-8"?>
<svg width="98px" height="75px" viewBox="0 0 98 75" version="1.1" xmlns="http://www.w3.org/2000/svg" xmlns:xlink="http://www.w3.org/1999/xlink">
    <!-- Generator: Sketch 48.2 (47327) - http://www.bohemiancoding.com/sketch -->
    <title>Group 4</title>
    <desc>Created with Sketch.</desc>
    <defs></defs>
    <g id="Home-V4" stroke="none" stroke-width="1" fill="none" fill-rule="evenodd" transform="translate(-672.000000, -2174.000000)">
        <g id="Group-4" transform="translate(672.000000, 2174.000000)">
            <circle id="Oval-3-Copy" fill="#E1D9D3" opacity="0.29908288" cx="36" cy="39" r="36"></circle>
            <path d="M90.1734904,0.467036 L80.9019884,0.467036 L72.9046564,26.346176 L63.6955704,28.083014 C63.2916618,24.591102 60.3173984,21.870178 56.7189844,21.870178 L40.9956044,21.870178 C37.1217704,21.870178 33.9676004,25.020682 33.9676004,28.898182 L33.9676004,33.693686 L23.2093004,35.724274 L23,55.339254 L27.54208,55.339254 C28.4306714,59.150672 31.84916,62 35.925,62 C40.004412,62 43.419338,59.150672 44.311586,55.339254 L64.411606,55.339254 C66.07127,59.231418 69.934106,61.967006 74.424486,61.967006 C80.424318,61.967006 85.307806,57.083424 85.307806,51.083686 C85.307806,46.049516 81.867218,41.81585 77.222302,40.578246 L76.399802,28.292446 L83.783972,4.392006 L90.169392,4.392006 C91.744644,4.392006 93.02248,5.673508 93.02248,7.245094 L93.02248,7.3111948 L96.936734,7.3111948 L96.936734,7.245094 C96.9404094,3.503424 93.90373,0.466848 90.173152,0.466848 L90.1734904,0.467036 Z M37.8859904,28.894516 C37.8859904,27.179768 39.2813264,25.780766 40.9997404,25.780766 L56.7231204,25.780766 C58.4122064,25.780766 59.7817864,27.132016 59.8258724,28.810104 L37.8862724,32.948266 L37.8859904,28.894516 Z M35.9289104,58.078696 C33.3365784,58.078696 31.2252444,55.967362 31.2252444,53.37503 C31.2252444,50.782698 33.3365784,48.671364 35.9289104,48.671364 C38.5212424,48.671364 40.6325764,50.782698 40.6325764,53.37503 C40.6325764,55.967362 38.5212424,58.078696 35.9289104,58.078696 Z M63.5451704,51.076448 C63.5451704,51.193948 63.5598532,51.3041066 63.5635286,51.4179312 L44.3151486,51.4179312 C43.4265572,47.6065132 40.0080686,44.7571852 35.9285626,44.7571852 C31.8528166,44.7571852 28.4342246,47.6065132 27.5456426,51.4179312 L26.9581426,51.4179312 L27.0903254,38.9704512 L72.6220454,30.3819532 L73.2793122,40.2519532 C67.8192282,40.8284364 63.5456122,45.4623732 63.5456122,51.0769932 L63.5451704,51.076448 Z M81.3976504,51.076448 C81.3976504,54.92086 78.2729024,58.045702 74.4283964,58.045702 C70.5876504,58.045702 67.4591424,54.920954 67.4591424,51.076448 C67.4591424,47.232036 70.5875564,44.107194 74.4283964,44.107194 C78.2728084,44.107194 81.3976504,47.231942 81.3976504,51.076448 Z" id="Page-1" stroke="#799D62" stroke-width="0.5" fill="#799D62"></path>
        </g>
    </g>
</svg>