<?xml version="1.0" encoding="UTF-8"?>
<svg width="109px" height="72px" viewBox="0 0 109 72" version="1.1" xmlns="http://www.w3.org/2000/svg" xmlns:xlink="http://www.w3.org/1999/xlink">
    <!-- Generator: Sketch 48.2 (47327) - http://www.bohemiancoding.com/sketch -->
    <title>Group 3</title>
    <desc>Created with Sketch.</desc>
    <defs></defs>
    <g id="Home-V4" stroke="none" stroke-width="1" fill="none" fill-rule="evenodd" transform="translate(-295.000000, -2174.000000)">
        <g id="Group-3" transform="translate(295.000000, 2174.000000)">
            <circle id="Oval-3-Copy-3" fill="#E1D9D3" opacity="0.29908288" cx="36" cy="36" r="36"></circle>
            <path d="M51.1495911,30.4828801 C52.7192143,38.8363215 53.1589023,43.3316583 52.4644476,46.7828938 C51.8933055,49.6385519 50.438727,52.177908 47.8911662,55.9170445 C46.2846218,53.270922 45.0929411,50.9658207 44.3369511,48.656617 C42.8412755,44.0916454 42.8248661,39.2553926 44.6656653,30.947077 C44.9409647,29.6568346 43.7082814,28.2845451 42.3933828,28.4160308 C41.7893692,28.4858865 41.2182166,28.831031 40.8812977,29.3364304 C35.7697666,37.0776746 32.2936014,41.182762 30.4158811,46.1949951 C29.6228543,48.315175 29.1831767,50.5422265 29.0352817,53.1267085 C29.0352817,55.9170445 28.8356579,57.3730128 29.3860827,61.7520587 C29.5617202,63.1493882 29.6044959,63.2670285 29.6592288,63.8832566 C29.7139616,64.4994846 29.6377617,63.6678441 29.7771439,65.4002965 C29.9165261,67.132749 29.6807243,67.975331 30.2231754,67.975331 C31.2213864,67.975331 56.4171061,67.975331 105.810334,67.975331 C107.24437,67.823302 107.753903,67.0179471 108.016874,65.7728937 C109.463216,56.1539291 109.389269,50.8077223 107.490931,45.9595832 C105.563878,41.0411782 102.10002,37.0637897 96.9925908,29.3303294 C96.5611495,28.6852292 95.7557841,28.3154285 94.9832796,28.4099298 C93.8492421,28.5537436 92.9698661,29.7535029 93.1752992,30.8753385 C94.288825,37.0387549 95.2872744,41.6161387 95.1846104,45.0715817 C95.0983243,47.9272398 94.4326808,50.0393201 92.3206425,52.2991904 C89.8881579,45.9919813 91.9056422,41.9364377 92.8137137,37.7737071 C93.1177716,36.4629529 91.8481146,35.0495347 90.5086124,35.2097368 C90.0730688,35.2549363 89.6498427,35.4439496 89.3252415,35.7356794 C86.128457,38.6488756 83.6467442,41.8949935 81.9866589,45.4285916 C80.0225788,40.7485437 76.6368757,36.7751524 71.7184707,29.3252804 C71.2870295,28.6801802 70.481664,28.3103794 69.7091595,28.4048808 C68.5504027,28.5445817 67.6547224,29.7936849 67.9011792,30.9359271 C69.5160334,38.5620951 69.9885402,42.6339428 69.3147025,45.8884758 C68.9120304,47.8361465 68.0491794,49.6604311 66.6479631,51.9327136 C66.4548475,49.7673026 66.0357343,47.8402489 65.3659253,45.9871426 C63.5210238,40.8838162 60.0859874,36.6844799 54.9662515,28.9350309 C54.5348103,28.2899308 53.7294448,27.92013 52.9569403,28.0146314 C51.823534,28.1612852 50.9441579,29.3610445 51.1495911,30.4828801 Z M56.7085942,39.0583219 C58.8410812,42.251004 60.5257806,44.9792788 61.4133614,47.4363775 C62.8021654,51.2822803 62.9747798,55.5966929 61.8406897,63.7689997 L52.9900221,63.7689997 C52.0490792,62.3554763 51.1287112,60.9872892 50.3232826,59.7586872 C53.6022193,55.0580224 55.7470133,51.7380622 56.577056,47.5999457 C57.0701272,45.1428469 57.045471,42.3446218 56.7085416,39.0574804 L56.7085942,39.0583219 Z M39.2336247,39.2555504 C38.9829815,43.2822723 39.2993675,46.7461304 40.3512528,49.9679497 C41.809902,54.426155 44.4232057,58.510415 47.9198826,63.769736 L33.9003561,63.769736 C32.770421,55.613523 32.9553003,51.385891 34.3605559,47.6338164 C35.2727403,45.1972294 37.0272954,42.4894664 39.2296275,39.2557608 L39.2336247,39.2555504 Z M73.6208052,39.617136 C75.7163709,42.6495107 77.3968628,45.1806622 78.2926483,47.4692489 C79.7471952,51.1836661 79.9403213,55.3706953 78.7528481,63.7692627 L66.0523857,63.7692627 C66.2455013,62.3270228 66.3975302,60.9546281 66.5125854,59.6932073 C70.2105932,54.4214741 72.5404138,51.0192564 73.4237871,46.7455519 C73.8675564,44.5883456 73.8880997,42.3202707 73.6210155,39.61661 L73.6208052,39.617136 Z M98.8944519,39.617136 C100.990018,42.6495107 102.67051,45.1806622 103.566295,47.4692489 C105.020842,51.1836661 105.213968,55.3706953 104.026495,63.7692627 L100.636584,63.7692627 C98.1219474,60.2068429 96.166072,57.7866653 94.678601,55.8514069 C97.8712831,52.6670347 99.2641896,49.0922027 99.3833682,45.2052763 C99.4367829,43.4507317 99.1655964,41.5564968 98.890297,39.617136 L98.8944519,39.617136 Z M87.5414545,44.3506196 C87.1264542,48.1308847 87.1593256,51.2165901 88.2646256,53.6819987 C89.6945584,56.8622686 92.0613002,59.3399843 95.4059797,63.7693678 L83.001097,63.7693678 C83.3832259,60.9711427 83.6174387,58.546968 83.6913967,56.4102735 C84.5419406,52.1575015 85.4664531,47.6253487 87.5415071,44.3504092 L87.5414545,44.3506196 Z" id="Page-1" fill="#799D62"></path>
        </g>
    </g>
</svg>