<?xml version="1.0" encoding="UTF-8"?>
<svg width="137px" height="125px" viewBox="0 0 137 125" version="1.1" xmlns="http://www.w3.org/2000/svg" xmlns:xlink="http://www.w3.org/1999/xlink">
    <!-- Generator: Sketch 48.2 (47327) - http://www.bohemiancoding.com/sketch -->
    <title>icon3 copy</title>
    <desc>Created with Sketch.</desc>
    <defs></defs>
    <g id="Residential" stroke="none" stroke-width="1" fill="none" fill-rule="evenodd" transform="translate(-371.000000, -942.000000)">
        <g id="icon3-copy" transform="translate(373.000000, 942.000000)">
            <path d="M64.3580492,56.3844911 L4.52195727,77.2486614 C-1.40277172,79.3136519 -1.53932681,87.4700772 4.31198546,89.7263238 L4.3780605,89.7522081 L58.9178705,110.777436 C63.0850033,112.3837 67.7146614,112.408146 71.8994142,110.845023 L128.621169,89.6558611 C134.529746,87.4485069 134.435773,79.230247 128.478741,77.1537523 L68.9216322,56.3888052 C67.4459563,55.8711195 65.8337252,55.8711195 64.3580492,56.3844911 Z" id="Shape" fill="#A7C587" fill-rule="nonzero" opacity="0.35"></path>
            <polygon id="Shape" points="117 94 116.998531 94 72 111"></polygon>
            <path d="M132.95359,84.4460825 C132.728888,86.3130505 131.715522,88.1003914 129.885589,89.2094813 C129.502272,89.4412526 129.096926,89.6545391 128.643114,89.8223245 L116.892477,94.1619941 L71.909317,110.774169 C67.7236758,112.319786 63.0930347,112.295613 58.9250172,110.70734 L4.37362797,89.9190144 L4.30753889,89.89342 C3.88016289,89.7299004 3.49390898,89.5279891 3.12968475,89.3075931 C0.791600226,87.8899487 -0.224702847,85.3788556 0.04846532,83 L0,83 L0,95.3137412 L0.023498337,95.3137412 C0.182112111,97.6655805 1.59788691,99.9449023 4.30753889,100.977209 L4.37362797,101.002803 L58.9250172,121.791129 C63.0930347,123.379402 67.7236758,123.403575 71.909317,121.857958 L128.643114,100.906114 C131.860918,99.7173967 133.278161,96.7740429 132.955059,94.0041621 L132.955059,84.4460825 L132.95359,84.4460825 Z" id="Shape" stroke="#99AFAD" stroke-width="3"></path>
            <path d="M132.9611,82.7858026 L132.9611,82.5815998 L132.93613,82.5815998 C132.651184,80.2677804 131.18973,78.0876995 128.506237,77.1515302 L68.9303429,56.3861159 C67.4542014,55.8712947 65.8414618,55.8712947 64.3653203,56.3861159 L4.51182326,77.2493175 C1.80189192,78.1941151 0.309593681,80.4115852 0.0437413386,82.7556036 C-0.230923789,85.1614581 0.786952861,87.701051 3.12527844,89.1347849 C3.48954021,89.3576824 3.87583395,89.5618852 4.30325401,89.7272607 L4.3693499,89.7531456 L58.9263633,110.777409 C63.0948105,112.383708 67.725929,112.408155 71.9120018,110.844997 L116.8998,94.0442811 L128.651648,89.6553583 C129.105507,89.4856687 129.510895,89.2713995 129.894251,89.0355596 C131.725841,87.9124441 132.737843,86.1062557 132.962569,84.2180985 C133.018383,83.7421046 133.006633,83.2632346 132.9611,82.7858026 Z" id="Shape" stroke="#99AFAD" stroke-width="3"></path>
            <g id="Group" opacity="0.33" transform="translate(38.000000, 73.000000)" fill="#99AFAD" fill-rule="nonzero">
                <g id="Oval">
                    <ellipse cx="27.9755897" cy="8.4694" rx="27.9253333" ry="8.44072667"></ellipse>
                </g>
            </g>
            <path d="M64.6300242,79 L64.6300242,45.4289957 L24.8699758,45.4289957 C23.8390729,45.4289957 23,44.5888041 23,43.5565269 C23,26.060601 40.9778328,11.5500677 63.9300646,10.5207231 L64.6300242,10.4899308 L64.6300242,1.87246877 C64.6300242,0.840191547 65.4690972,0 66.5,0 C67.5309028,0 68.3699758,0.840191547 68.3699758,1.87246877 L68.3699758,10.4884645 L69.0699354,10.5192568 C92.0221672,11.5486014 110,26.0591347 110,43.5550606 C110,44.5873378 109.160927,45.4275294 108.130024,45.4275294 L68.3699758,45.4275294 L68.3699758,78.9985337 L64.6300242,78.9985337 L64.6300242,79 Z M76.6010907,16.4387215 C80.8564936,22.1015832 83.5216118,31.0445645 83.9082004,40.9773001 L83.9374874,41.6811255 L106.192688,41.6811255 L106.091648,40.8585296 C104.614118,28.8524417 93.0589275,18.5736585 77.3361947,15.278876 L75.4296102,14.8800416 L76.6010907,16.4387215 Z M66.5,14.1630195 C60.465411,14.1630195 53.5170673,24.3919483 52.8127146,40.918648 L52.7819632,41.6825918 L80.2180368,41.6825918 L80.1872854,40.918648 C79.4858614,24.3919483 72.5360533,14.1630195 66.5,14.1630195 Z M55.666734,15.2803423 C39.9469299,18.5736585 28.3902747,28.8524417 26.9083518,40.8585296 L26.8073117,41.6825918 L49.0654413,41.6825918 L49.0947283,40.9787664 C49.4842456,31.0460308 52.1478994,22.1015832 56.401838,16.4401878 L57.5733185,14.8815079 L55.666734,15.2803423 Z" id="Shape" fill="#99AFAD" fill-rule="nonzero"></path>
        </g>
    </g>
</svg>